# xmcd
#
# Track frame offsets: 
#        150
#        14173
#        35231
#        49691
#        69133
#        86338
#        98157
#        109812
#        133040
#        146285
#        162367
#        189975
#        207899
#
# Disc length: 3136 seconds
#
# Revision: 1
# Processed by: cddbd v1.5.2PL0 Copyright (c) Steve Scherf et al.
# Submitted via: ExactAudioCopy v1.1
#
DISCID=af0c3e0d
DTITLE=Ben Waters - Boogie 4 Stu A Tribute To Ian Stewart
DYEAR=2011
DGENRE=Blues
TTITLE0=Boogie Woogie Stomp 
TTITLE1=Rooming House Boogie
TTITLE2=Worried Life Blues 
TTITLE3=Boogie For Stu 
TTITLE4=Make Me A Pallet On Your Floor
TTITLE5=Midnight Blues 
TTITLE6=Lonely Avenue 
TTITLE7=Watching The River Flow
TTITLE8=Roll 'Em Pete 
TTITLE9=Suitcase Blues 
TTITLE10=Bring It On Home To Me 
TTITLE11=Kidney Stew
TTITLE12=Chicago Calling
EXTD=
EXTT0=
EXTT1=
EXTT2=
EXTT3=
EXTT4=
EXTT5=
EXTT6=
EXTT7=
EXTT8=
EXTT9=
EXTT10=
EXTT11=
EXTT12=
PLAYORDER=
